<?xml version="1.0" encoding="utf-8"?>
<!-- Generator: Adobe Illustrator 22.1.0, SVG Export Plug-In . SVG Version: 6.00 Build 0)  -->
<svg version="1.1" id="Layer_1" xmlns="http://www.w3.org/2000/svg" xmlns:xlink="http://www.w3.org/1999/xlink" x="0px" y="0px"
	 viewBox="0 0 481.9 85" style="enable-background:new 0 0 481.9 85;" xml:space="preserve">
<style type="text/css">
	.Arched_x0020_Green{fill:url(#SVGID_1_);stroke:#FFFFFF;stroke-width:0.25;stroke-miterlimit:1;}
	.st0{fill-rule:evenodd;clip-rule:evenodd;fill:#FFFFFF;}
	.st1{fill:#FFFFFF;}
</style>
<linearGradient id="SVGID_1_" gradientUnits="userSpaceOnUse" x1="0" y1="85.04" x2="0.7071" y2="84.3329">
	<stop  offset="0" style="stop-color:#3AA429"/>
	<stop  offset="0.9831" style="stop-color:#202F13"/>
</linearGradient>
<g>
	<g>
		<path class="st0" d="M349.9,16.8l3.5,0.8l2.1,1l1.6,0.9l0.6,1.3l0.8,0.9l-6.2,1.3l-5.4,0.8l-4.6,0.6h-4.1l-3.5,0.9h-3.3l-4.7,0.6
			l-7.9,1.4l-12.5,2.1l-8.7,1.3l-4.7,0.3h-2.1l2.8-6.3l-4.9,6.2l-4.6-0.2l-4.6-0.5l2.8,1.6h3.2h3.6h3.8h4h3.3l3.5-0.8l5.2-1l4.3-0.3
			l5.7-1l5.4-0.5l6.2-1.4l4.3-0.5l4.4-0.2l4.3-0.8l3.8-0.5c1.7,0,3.6-0.2,3.6-0.2l3.3-1.3l3.3-0.3l2.8-0.2l3-0.6l3.8-0.2l2.1-0.5
			l-3.3-1.4l-4.1-1.7l-3.8-0.6l-2.4-0.9L349.9,16.8z"/>
		<path class="st0" d="M264.5,29.7h7l5.4-3l5.1-1.7l3.3-1.6c0.3,0.8,3.2-1.3,3.2-1.3l3.5-1.1l3.2-0.6l4.1-1.4l4.4-1.7l4.6-1.3
			l4.1-0.6l4.4-1.4l6.5-0.6l5.7-0.2l6.5-0.3l6.6-0.2h5.7l3,0.5l2,0.5l3.3,0.3l2.2,0.6l2.4,0.8l2.7,0.9l2.5,1l3,1.3l2.8,1.3l2.5,1.3
			l11.7-0.3l-6.6-3l-3.5-1.3l-1.1-0.5l-1.9-0.8l-2.8-0.8l-2.7-0.6l-2.8-0.6l-3.6-0.6l-3.2-0.6l-2.7-0.2h-2.8l-4.1-0.5h-4.9h-4.9
			h-4.9h-3.9l-5.5,0.2l-3.2,0.2l-6,0.8c0,0-0.6,0-1.3,0c-0.7,0-1.4,0-1.4,0l-2.7,1.7L287,21l-8.1,2.8l-6.6,2.4L264.5,29.7z"/>
		<path class="st0" d="M427.5,28.6l7.5-3l-1.9,4.8l-4.7,0.6l-0.2,0.9l4.4-0.2l-0.3,7.8c0,0,1.6,0.1,3,0.2c1.1,0.1,2.1,0.1,2.1,0.1
			l0.2,2.3l-5.6,8.3h-2.5l6.6-8.8l-8.3-1.2l-3.4-2.2L427.5,28.6z"/>
		<path class="st0" d="M404.6,32.1l22.8-7.5l-68.6-9.3l-6.1-2.8l31.7,3.8l26.5,3.4l10.3,1l15.8,2l1.8,0.4l-6.3,2L404.6,32.1z"/>
		<path class="st0" d="M301.9,33.8c0,0,3.6-0.5,8.1-1.1c7.5-1,17.6-2.4,17.6-2.4l16.4-2.7l8.7-0.9l6.6-0.8l7.2-1.3l5.5-0.6l5.7-0.5
			l4.1-0.2l-25.7,5l17.2,4.4l-6.5,10.4l2.2-9.6l-18.6-2.8l-3-1.3l-21.9,2.8L301.9,33.8z"/>
	</g>
	<g>
		<path class="st1" d="M26.7,70.9h-6.5c-0.1-1.5-0.2-2.8-0.4-4.3l-2.7,4.3h-6.5c-0.5-4.8-0.3-2.6-1.1-11.5c0,0,5.7,0,6.3,0l0.8,8.4
			l2.8-4.5l-0.4-3.9c0,0,5.6,0,6.3,0l0.9,8.2l5-8.2c0,0,2.1,0,2.6,0L26.7,70.9z"/>
		<path class="st1" d="M51,70.9h-6.5c-0.1-1.5-0.2-2.8-0.4-4.3l-2.7,4.3h-6.5c-0.5-4.8-0.3-2.6-1.1-11.5c0,0,5.7,0,6.3,0l0.9,8.4
			l2.8-4.5l-0.4-3.9c0,0,5.6,0,6.3,0l0.9,8.2l5-8.2c0,0,2.1,0,2.6,0L51,70.9z"/>
		<path class="st1" d="M75.4,70.9h-6.5c-0.1-1.5-0.2-2.8-0.4-4.3l-2.7,4.3h-6.5c-0.5-4.8-0.3-2.6-1.1-11.5c0,0,5.7,0,6.3,0l0.9,8.4
			l2.8-4.5l-0.4-3.9c0,0,5.6,0,6.3,0l0.9,8.2l5-8.2c0,0,2.1,0,2.6,0L75.4,70.9z"/>
		<path class="st1" d="M81.2,70.9l1.1-4.1h5.8L87,70.9H81.2z"/>
	</g>
	<path class="st1" d="M125,70.3l-0.3-6.7h-14.4l-4.1,6.7H99l22.3-37.8c17.3,0,18.6,0,18.6,0l1.4,37.8H125z M124.5,39.6l-10,17.2
		h10.1L124.5,39.6z"/>
	<path class="st1" d="M153.2,70.2c-6.6,0-8.2-3.9-6.6-10.1l3-11.3c1-3.8,1-3.7,1.7-6.4h14l-5.4,20c-0.5,1.7,0,2.3,1.7,2.3h5.1
		c1.7,0,2.4-0.6,2.9-2.3l3.7-13.6c1-3.8,0.9-3.2,1.7-6.4h14l-5.7,21.3c-1,3.8-1.2,4.3-1.7,6.4H153.2z"/>
	<path class="st1" d="M194.7,70.2c-4.4,0-7.8-1.8-6-8.7l6.7-25h14l-1.6,6h8.8l-1.5,5.4h-8.8l-3.9,14.6c-0.5,1.8-0.3,2.2,2.2,2.2h4.9
		c2.7,0-0.5,0,1.8,0l-1.5,5.4H194.7z"/>
	<path class="st1" d="M243.2,70.2h-21.8c-6.3,0-7.3-2.6-5.8-8.4l3-11c1.5-5.8,4-8.4,10.3-8.4h21.8c6.3,0,7.3,2.6,5.8,8.4l-3,11
		C252,67.6,249.5,70.2,243.2,70.2z M242.7,50.2c0.4-1.6,0.1-2.2-1.5-2.2h-5.8c-1.5,0-2.2,0.6-2.6,2.2l-3.3,12.4
		c-0.4,1.6-0.1,2.2,1.4,2.2h5.8c1.7,0,2.3-0.6,2.7-2.2L242.7,50.2z"/>
	<path class="st1" d="M281.7,70.2l4.3-16.1h-10.8L271,70.2h-15.4l10.1-37.7h15.4l-4,15.2h10.8l4-15.2h15.3L297,70.2H281.7z"/>
	<path class="st1" d="M310.2,70.2c-6.3,0-7.3-2.6-5.8-8.4l0.5-1.8c1.5-5.8,4-8.4,10.3-8.4h15.1c0.2-0.8,0.2-0.6,0.5-1.9
		c0.4-1.2,0.1-1.8-1.9-1.8h-14.6l1.5-5.4h21.5c6.7,0,8.6,2.7,6.6,10.3L340.6,65c-0.8,2.8-0.8,3.1-1.4,5.2H310.2z M328.8,57.1h-6.2
		c-2.1,0-3.1,0.4-3.6,2.4l-0.8,3c-0.6,2,0.2,2.4,2.3,2.4h3.3c2.7,0,2.9,0.2,3.8-3.4L328.8,57.1z"/>
	<path class="st1" d="M352.8,70.2c-6.6,0-8.2-3.9-6.6-10.1l3-11.3c1-3.8,1-3.7,1.7-6.4h14l-5.4,20c-0.5,1.7,0,2.3,1.7,2.3h5.1
		c1.7,0,2.4-0.6,2.9-2.3l3.7-13.6c1-3.8,0.9-3.2,1.7-6.4h14l-5.7,21.3c-1,3.8-1.2,4.3-1.7,6.4H352.8z"/>
	<path class="st1" d="M410.7,47.9c-1.4,0-1.8,0.1-2.4,0.8c-0.7,0.8-0.5,1.6-0.2,2.3l3.9,8.5c0.5,1.1,2.1,4.2-0.4,7.7
		c-1.7,2.3-3.7,2.9-6.1,2.9h-19.8l1.5-5.4c1.2,0,6.3,0,6.3,0c1,0,1.8-0.4,2.3-0.9c0.6-0.6,0.8-1.5,0.4-2.4l-4.1-8.8
		c-1-2.3-0.8-5.1,1.1-7.4c1.9-2.2,3.9-2.7,6.4-2.7h18.8l-1.5,5.4C415.2,47.9,410.7,47.9,410.7,47.9z"/>
	<g>
		<path class="st1" d="M428.5,69.5l1.1-4.1h5.7l-1.1,4.1H428.5z"/>
		<path class="st1" d="M448.9,69.5h-11.8c0.2-0.7,0.3-1,0.6-2.2c0,0,3.4-12.8,3.6-13.5h5.7l-1.1,4.2h6c2.6,0,3.2,1.5,2.7,3.6
			l-1.2,4.4C452.9,68,451.5,69.5,448.9,69.5z M449,61.1c0.2-0.6,0-0.9-0.6-0.9h-2.3c-0.6,0-0.9,0.2-1,0.9l-1.4,5.3
			c-0.2,0.6,0,0.9,0.6,0.9h2.3c0.6,0,0.8-0.2,1-0.9L449,61.1z"/>
		<path class="st1" d="M464.4,73.8h-5.9l0.6-2.3c1.1,0,2.6,0,2.6,0c1.2,0,1.5-0.3,1.9-1.7l0.1-0.4h-6c-2.6,0-3.2-1.5-2.7-3.6
			l1.2-4.4c0.6-2.1,1.9-3.6,4.5-3.6h11.8c-0.2,0.8-0.3,1.1-0.8,3.1l-2.2,8.5C468.5,72.7,467.1,73.8,464.4,73.8z M465.9,61.1
			c0.2-0.7,0-0.9-0.6-0.9H463c-0.6,0-0.9,0.3-1.1,0.9l-1.4,5.2c-0.2,0.7,0,0.9,0.6,0.9h2.2c0.6,0,0.9-0.3,1.1-0.9L465.9,61.1z"/>
	</g>
</g>
</svg>
